<?xml version="1.0" encoding="UTF-8" standalone="no"?>
<!-- Created with Inkscape (http://www.inkscape.org/) -->

<svg
   width="13.229167mm"
   height="13.229167mm"
   viewBox="0 0 13.229167 13.229167"
   version="1.1"
   id="svg1"
   inkscape:version="1.3.2 (091e20e, 2023-11-25)"
   sodipodi:docname="logo.svg"
   xmlns:inkscape="http://www.inkscape.org/namespaces/inkscape"
   xmlns:sodipodi="http://sodipodi.sourceforge.net/DTD/sodipodi-0.dtd"
   xmlns:xlink="http://www.w3.org/1999/xlink"
   xmlns="http://www.w3.org/2000/svg"
   xmlns:svg="http://www.w3.org/2000/svg">
  <sodipodi:namedview
     id="namedview1"
     pagecolor="#ffffff"
     bordercolor="#000000"
     borderopacity="0.25"
     inkscape:showpageshadow="2"
     inkscape:pageopacity="0.0"
     inkscape:pagecheckerboard="0"
     inkscape:deskcolor="#d1d1d1"
     inkscape:document-units="mm"
     inkscape:zoom="3.2370385"
     inkscape:cx="43.712795"
     inkscape:cy="18.226537"
     inkscape:window-width="1696"
     inkscape:window-height="449"
     inkscape:window-x="0"
     inkscape:window-y="43"
     inkscape:window-maximized="0"
     inkscape:current-layer="layer1" />
  <defs
     id="defs1">
    <linearGradient
       inkscape:collect="always"
       xlink:href="#linearGradient1"
       id="linearGradient2"
       x1="65.042252"
       y1="79.693573"
       x2="63.431599"
       y2="142.57051"
       gradientUnits="userSpaceOnUse"
       gradientTransform="matrix(0.16581494,0,0,0.16581494,14.170325,32.375653)" />
    <linearGradient
       id="linearGradient1"
       inkscape:collect="always">
      <stop
         style="stop-color:#ede357;stop-opacity:1;"
         offset="0"
         id="stop1" />
      <stop
         style="stop-color:#ed579a;stop-opacity:1;"
         offset="1"
         id="stop2" />
    </linearGradient>
  </defs>
  <g
     inkscape:label="Vrstva 1"
     inkscape:groupmode="layer"
     id="layer1"
     transform="translate(-18.340723,-45.589996)">
    <path
       id="path1"
       style="fill:url(#linearGradient2);stroke-width:2.89044;paint-order:stroke markers fill"
       d="m 24.955264,45.589996 a 6.6146013,6.6146013 0 0 0 -6.549504,5.704457 h 13.100037 a 6.6146013,6.6146013 0 0 0 -6.550533,-5.704457 z m -6.590548,6.278733 a 6.6146013,6.6146013 0 0 0 -0.02399,0.335894 6.6146013,6.6146013 0 0 0 0.03796,0.530317 h 13.168072 a 6.6146013,6.6146013 0 0 0 0.02314,-0.530317 6.6146013,6.6146013 0 0 0 -0.0088,-0.335894 z m 0.09957,1.535686 a 6.6146013,6.6146013 0 0 0 0.282682,1.01985 H 31.1759 a 6.6146013,6.6146013 0 0 0 0.282683,-1.01985 z m 0.699721,1.945016 a 6.6146013,6.6146013 0 0 0 0.698523,1.019764 h 10.19781 a 6.6146013,6.6146013 0 0 0 0.698522,-1.019764 z m 1.945272,2.20019 a 6.6146013,6.6146013 0 0 0 3.845986,1.269628 6.6146013,6.6146013 0 0 0 3.858239,-1.269628 z" />
  </g>
</svg>
